<?xml version="1.0" encoding="UTF-8" standalone="no" ?>
<!DOCTYPE svg PUBLIC "-//W3C//DTD SVG 1.1//EN" "http://www.w3.org/Graphics/SVG/1.1/DTD/svg11.dtd">
<svg xmlns="http://www.w3.org/2000/svg" xmlns:xlink="http://www.w3.org/1999/xlink" version="1.1" width="1080" height="1080" viewBox="0 0 1080 1080" xml:space="preserve">
<desc>Created with Fabric.js 5.2.4</desc>
<defs>
</defs>
<rect x="0" y="0" width="100%" height="100%" fill="transparent"></rect>
<g transform="matrix(0 0 0 0 0 0)" id="64403008-b9fa-4d0d-a881-3c3d7e929cd1"  >
</g>
<g transform="matrix(1 0 0 1 540 540)" id="859da2cf-4d2c-4557-859e-b912ec0cccff"  >
<rect style="stroke: none; stroke-width: 1; stroke-dasharray: none; stroke-linecap: butt; stroke-dashoffset: 0; stroke-linejoin: miter; stroke-miterlimit: 4; fill: rgb(255,255,255); fill-rule: nonzero; opacity: 1; visibility: hidden;" vector-effect="non-scaling-stroke"  x="-540" y="-540" rx="0" ry="0" width="1080" height="1080" />
</g>
<g transform="matrix(1 0 0 1 540 504.8)"  >
<path style="stroke: rgb(0,0,0); stroke-width: 0; stroke-dasharray: none; stroke-linecap: butt; stroke-dashoffset: 0; stroke-linejoin: miter; stroke-miterlimit: 4; fill: rgb(255,255,255); fill-rule: nonzero; opacity: 1;" vector-effect="non-scaling-stroke"  transform=" translate(-126.4, -154.38)" d="M 57.56 0 L 118.61 9.22 L 99.21 62.64 L 229.27 52.15 L 252.8 85.86 L 127.83 308.77 L 76.95 283.96 L 126.87 193.65 L 78.22 183.79 L 92.53 143.41 C 111.18 147.23 129.84 150.94 148.5 154.54 L 177.12 103.03 L 81.09 109.71 L 54.69 180.93 L 0 170.76 Z" stroke-linecap="round" />
</g>
<g transform="matrix(1 0 0 1 540 700.81)" style="" id="ca2ee821-7de1-4b01-b35d-24fddd193e4a"  >
		<text xml:space="preserve" font-family="Raleway" font-size="52" font-style="normal" font-weight="900" style="stroke: none; stroke-width: 1; stroke-dasharray: none; stroke-linecap: butt; stroke-dashoffset: 0; stroke-linejoin: miter; stroke-miterlimit: 4; fill: rgb(255,255,255); fill-rule: nonzero; opacity: 1; white-space: pre;" ><tspan x="-329.84" y="16.34" >En attente d&apos;un épisode ...</tspan></text>
</g>
</svg>